<svg width="80" height="80" viewBox="0 0 80 80" fill="none" xmlns="http://www.w3.org/2000/svg"><path d="M47.3567 27.6804L39.1404 44.5661H38.8076L30.04 26.4995C31.0404 28.809 31.6371 31.2484 31.8081 33.728C32.1409 37.328 31.0593 40.5756 29 43.4423L37.7363 60.928C37.9548 61.309 38.2564 61.4995 38.6724 61.4995H39.1924C39.598 61.4995 39.8996 61.3185 40.118 60.9375L49 43.2423C47.1479 40.4085 46.207 37.1536 46.2855 33.8518C46.2855 31.6614 46.6287 29.5852 47.3463 27.6804H47.3567Z" fill="url(#paint0_linear_524_576)"/><path d="M51.1393 46.2884C47.6316 42.7949 46.001 38.5683 46.001 33.5707C46.001 28.5541 47.6126 24.3085 51.1393 20.7864C52.7986 19.07 54.7921 17.7151 56.9957 16.8061C59.1992 15.8972 61.5656 15.4537 63.9473 15.5032C68.4367 15.4371 72.7802 17.1033 76.0822 20.1581C76.5941 20.6341 76.6036 21.11 76.1391 21.5574L72.2332 25.6126C71.7971 26.0029 71.3704 26.0029 70.9723 25.6126C69.1161 23.9299 66.6943 23.015 64.1938 23.0519C62.8751 23.0236 61.5658 23.2811 60.3552 23.8068C59.1446 24.3324 58.061 25.114 57.1783 26.0981C56.2769 27.0699 55.5759 28.211 55.1154 29.4559C54.655 30.7008 54.4442 32.0248 54.4954 33.3518C54.43 35.3389 54.9609 37.2999 56.0192 38.9804C57.0774 40.6608 58.6142 41.9832 60.4301 42.7758C61.6386 43.2848 62.9406 43.5314 64.2507 43.4993C66.6966 43.5564 69.0857 42.6997 70.9723 41.1004C71.4368 40.7006 71.8729 40.7197 72.2711 41.148L76.1865 45.2984C76.6226 45.7363 76.6036 46.1837 76.1391 46.6502C74.5298 48.2311 72.6227 49.4739 70.5293 50.3059C68.4359 51.1379 66.1982 51.5423 63.9473 51.4955C61.5713 51.5463 59.21 51.1099 57.0078 50.2129C54.8055 49.316 52.8087 47.9773 51.1393 46.2789V46.2884Z" fill="url(#paint1_linear_524_576)"/><path d="M2.0025 50.5097V16.4856C1.99932 16.356 2.02313 16.2272 2.07242 16.1073C2.12171 15.9875 2.1954 15.8792 2.28881 15.7893C2.36558 15.6998 2.46073 15.628 2.56777 15.5786C2.67482 15.5292 2.79126 15.5035 2.90915 15.5031H15.0678C20.0592 15.8847 23.7812 17.3154 27.1979 20.8256C30.6432 24.3454 32.0079 28.3325 32.4469 33.4738C32.8669 38.4148 30.8531 42.6881 27.4269 46.2078C25.8408 47.9028 23.9203 49.2506 21.7866 50.1663C19.6653 51.0768 17.3763 51.5318 15.0678 51.5017H2.90915C2.78975 51.5021 2.67167 51.4767 2.56297 51.4273C2.45426 51.378 2.3575 51.3057 2.27927 51.2156C2.18758 51.1248 2.11566 51.0162 2.06803 50.8963C2.0204 50.7765 1.99809 50.6481 2.0025 50.5192V50.5097ZM9.78062 24.7555V43.8899H14.562C15.8723 43.9206 17.1736 43.6671 18.3763 43.1467C19.5791 42.6264 20.6546 41.8516 21.5289 40.8757C23.375 38.8554 24.3668 36.1994 24.2966 33.4643C24.2966 30.5455 23.3613 28.0845 21.5289 26.0719C20.651 25.1005 19.5748 24.3287 18.3729 23.8088C17.171 23.2888 15.8715 23.0326 14.562 23.0577H9.79017V24.7555H9.78062Z" fill="url(#paint2_linear_524_576)"/><defs><linearGradient id="paint0_linear_524_576" x1="31.59" y1="41.496" x2="31.59" y2="51.973" gradientUnits="userSpaceOnUse"><stop stop-color="#7E51C2"/><stop offset="1" stop-color="#945DD6"/></linearGradient><linearGradient id="paint1_linear_524_576" x1="61.245" y1="33.523" x2="61.245" y2="51.495" gradientUnits="userSpaceOnUse"><stop stop-color="#F46837"/><stop offset="1" stop-color="#DD5236"/></linearGradient><linearGradient id="paint2_linear_524_576" x1="17.253" y1="33.55" x2="17.253" y2="51.511" gradientUnits="userSpaceOnUse"><stop stop-color="#13ADC7"/><stop offset="1" stop-color="#1497B8"/></linearGradient></defs></svg>